<?xml version="1.0" encoding="utf-8"?>
<!-- Generator: Adobe Illustrator 27.5.0, SVG Export Plug-In . SVG Version: 6.00 Build 0)  -->
<svg version="1.1" xmlns="http://www.w3.org/2000/svg" xmlns:xlink="http://www.w3.org/1999/xlink" x="0px" y="0px"
	 viewBox="0 0 1577 613" style="enable-background:new 0 0 1577 613;" xml:space="preserve">
<g id="BACKGROUND">
	
		<text transform="matrix(1 0 0 1 513.1514 577.4858)" style="fill:#FFFFFF; font-family:'MyriadPro-Regular'; font-size:20.0184px;">IMAGE NOT INCLUDED</text>
	<g>
		<defs>
			<rect id="SVGID_1_" x="0.641" width="1576.359" height="613"/>
		</defs>
		<clipPath id="SVGID_00000077304227437738810820000004137570007782503336_">
			<use xlink:href="#SVGID_1_"  style="overflow:visible;"/>
		</clipPath>
		<g style="clip-path:url(#SVGID_00000077304227437738810820000004137570007782503336_);">
			<rect x="898.831" y="-18.678" style="fill:#1E2836;" width="965.786" height="682.043"/>
			
				<linearGradient id="SVGID_00000086651021963230191700000005060913807713438629_" gradientUnits="userSpaceOnUse" x1="750.7196" y1="531.772" x2="1050.0792" y2="531.772">
				<stop  offset="0" style="stop-color:#B70232"/>
				<stop  offset="1" style="stop-color:#9B0432"/>
			</linearGradient>
			<polygon style="fill:url(#SVGID_00000086651021963230191700000005060913807713438629_);" points="900.399,402.146 
				975.239,531.772 1050.079,661.398 900.399,661.398 750.72,661.398 825.56,531.772 			"/>
			
				<linearGradient id="SVGID_00000147943207817992641760000011175001159551109290_" gradientUnits="userSpaceOnUse" x1="882.2106" y1="-57.3719" x2="1046.2104" y2="266.6278">
				<stop  offset="0" style="stop-color:#EB1B35"/>
				<stop  offset="1" style="stop-color:#D8092C"/>
			</linearGradient>
			<polygon style="fill:url(#SVGID_00000147943207817992641760000011175001159551109290_);" points="900.399,401.751 
				1022.563,190.156 1144.728,-21.438 900.399,-21.438 656.071,-21.438 778.235,190.156 			"/>
			<g>
				<g>
					<text transform="matrix(1 -0.1662 0 1 859.0862 107.8886)"><tspan x="0" y="0" style="fill:#FFFFFF; font-family:'Orkney-Light'; font-size:38.5674px;">U</tspan><tspan x="24.953" y="0" style="fill:#FFFFFF; font-family:'Orkney-Light'; font-size:38.5674px;">P TO</tspan></text>
					<text transform="matrix(1 -0.1662 0 1 877.7108 230.9213)"><tspan x="0" y="0" style="fill:#FFFFFF; font-family:'Orkney-Light'; font-size:38.5674px;">O</tspan><tspan x="26.573" y="0" style="fill:#FFFFFF; font-family:'Orkney-Light'; font-size:38.5674px;">FF</tspan></text>
					<text transform="matrix(1 -0.1662 0 1 831.5851 193.2367)"><tspan x="0" y="0" style="fill:#FFFFFF; font-family:'Orkney-Bold'; font-size:86.0241px;">5</tspan><tspan x="44.129" y="0" style="fill:#FFFFFF; font-family:'Orkney-Bold'; font-size:86.0241px;">0%</tspan></text>
				</g>
			</g>
		</g>
	</g>
</g>
<g id="OBJECTS">
	<g>
		<g>
			<text transform="matrix(1 0 0 1 1159.2129 162.9404)" style="fill:#FFFFFF; font-family:'Orkney-Bold'; font-size:81.0724px;">BANNER</text>
			
				<text transform="matrix(1 0 0 1 1316.6807 82.9766)" style="fill:#FFFFFF; font-family:'Orkney-Light'; font-size:33.1203px; letter-spacing:6;">WEBSITE</text>
			
				<line style="fill:none;stroke:#FFFFFF;stroke-width:3;stroke-miterlimit:10;" x1="1497.445" y1="191.449" x2="1236.236" y2="191.449"/>
			<g>
				<text transform="matrix(1 0 0 1 1403.793 251.1826)" style="fill:#FFFFFF; font-family:'Orkney-Light'; font-size:40.433px;">2019</text>
			</g>
		</g>
		<g>
			<rect x="1116" y="407.568" style="fill:none;" width="384" height="144.94"/>
			<text transform="matrix(1 0 0 1 1137.6836 419.6475)"><tspan x="0" y="0" style="fill:#FFFFFF; font-family:'Orkney-Light'; font-size:17.016px;">Lorem ipsum dolor sit amet, consectetur adipiscing </tspan><tspan x="-2.824" y="20.419" style="fill:#FFFFFF; font-family:'Orkney-Light'; font-size:17.016px;">elit. Suspendisse in commodo mi. Class aptent taciti </tspan><tspan x="3.08" y="40.839" style="fill:#FFFFFF; font-family:'Orkney-Light'; font-size:17.016px;">sociosqu ad litora torquent per conubia nostra, per </tspan><tspan x="215.828" y="61.258" style="fill:#FFFFFF; font-family:'Orkney-Light'; font-size:17.016px;">inceptos himenaeos. </tspan></text>
			<g>
				<text transform="matrix(1 0 0 1 1379.3535 342.4268)"><tspan x="0" y="0" style="fill:#FFFFFF; font-family:'Orkney-Medium'; font-size:23.8432px;">HOW START</tspan><tspan x="-35.024" y="28.612" style="fill:#FFFFFF; font-family:'Orkney-Medium'; font-size:23.8432px;">YOU COMPANY</tspan></text>
			</g>
			<g>
				
					<text transform="matrix(1 0 0 1 1323.6992 532.958)" style="fill:#FFFFFF; font-family:'Orkney-Regular'; font-size:18.6384px;">WWW.YOURWEB.COM</text>
			</g>
			<g>
				<text transform="matrix(1 0 0 1 1352.0527 554.208)" style="fill:#FFFFFF; font-family:'Orkney-Light'; font-size:15.127px;">IMAGE NOT INCLUDED</text>
			</g>
		</g>
	</g>
</g>
</svg>
