<svg xmlns="http://www.w3.org/2000/svg" width="365" height="247" fill="none" viewBox="0 0 365 247">
  <g clip-path="url(#clip0_9772_82504)">
    <mask id="mask0_9772_82504" style="mask-type:luminance" width="402" height="247" x="-36" y="0" maskUnits="userSpaceOnUse">
      <path fill="#fff" d="M-36 0h401.4v247H-36V0z"/>
    </mask>
    <g mask="url(#mask0_9772_82504)">
      <path fill="#ECF9F6" d="M-36 0h401.4v247H-36V0z"/>
      <path fill="#9DDBCC" d="M-47 269.3l1-73.5c192.9 0 416.6-2.6 573 78.5H401.5l-448.7-5z"/>
      <path fill="#fff" d="M225 99.6h42.6a4.5 4.5 0 0 1 4.5 4.6v152h-51.6V104a4.5 4.5 0 0 1 4.5-4.4z"/>
      <path fill="#E8F5FB" d="M261.4 114.2H237v5.7h24.4a2.8 2.8 0 1 0 0-5.7zm0 18.2H237v5.6h24.4a2.8 2.8 0 1 0 0-5.6zm0 54.3H237v5.5h24.4a2.8 2.8 0 1 0 0-5.5zm0 18.1H237v5.6h24.4a2.8 2.8 0 0 0 0-5.7v.1zm0-54.3H237v5.6h24.4a2.8 2.8 0 0 0 0-5.6zm0 72.3H237v5.7h24.4a2.8 2.8 0 1 0 0-5.7zm0-54.2H237v5.6h24.4a2.8 2.8 0 1 0 0-5.6z"/>
      <path fill="#C8ECE3" d="M249.7 149.7H286a4.5 4.5 0 0 1 4.6 4.6V247H245v-92.6a4.5 4.5 0 0 1 4.5-4.7z"/>
      <path fill="#fff" d="M290.8 136.2h43a4.5 4.5 0 0 1 4.4 4.5v115.6h-52V140.7a4.5 4.5 0 0 1 4.6-4.5z"/>
      <path fill="#BEE7D3" d="M187.7 115.8h45.6a6 6 0 0 1 6 6v134.5h-57.6V121.9a6 6 0 0 1 6-6z"/>
      <path fill="#006169" d="M165.2 229.7a9.8 9.8 0 0 1-9.8-9.7c0-4.4 3.8-22 9.8-22 6 0 9.7 17.6 9.7 22a9.8 9.8 0 0 1-9.7 9.7z"/>
      <path fill="#B29F32" d="M166 212.6h-1.6v26.9h1.6v-26.9z"/>
      <path fill="#B29F32" d="M169.8 216.4l-1-1-4.2 4 1 1 4.2-4zm-4 7l-5-4.8-1.2 1 5 5 1-1v-.2z"/>
      <path fill="#006169" d="M147.2 229.7a12.4 12.4 0 0 1-12.5-12.3c0-5.5 5-28.4 12.4-28.4s12.3 23 12.3 28.4a12.3 12.3 0 0 1-12.3 12.3z"/>
      <path fill="#FFE447" d="M148 205.3h-1.7v34.2h1.6v-34.2z"/>
      <path fill="#FFE447" d="M152.5 209.1l-1-1.1-5 4.8 1.1 1.3 5-5zm0 9.8l-1-1-5 4.7 1.1 1 5-4.7zm-4.8-2l-5.8-5.7-1 1.2 5.7 5.7 1-1.2z"/>
      <path fill="#ECF9F6" d="M296 147h4.5a2.3 2.3 0 0 1 2.3 2.3v8a2.3 2.3 0 0 1-2.3 2.2H296a2.3 2.3 0 0 1-2.3-2.2v-8a2.3 2.3 0 0 1 2.3-2.3zm13.6 0h4.5a2.3 2.3 0 0 1 2.3 2.3v8a2.3 2.3 0 0 1-2.3 2.2h-4.5a2.3 2.3 0 0 1-2.3-2.2v-8a2.3 2.3 0 0 1 2.3-2.3zm13.6 0h4.5a2.3 2.3 0 0 1 2.3 2.3v8a2.3 2.3 0 0 1-2.3 2.2h-4.5a2.3 2.3 0 0 1-2.3-2.2v-8a2.3 2.3 0 0 1 2.3-2.3zM296 169.8h4.5a2.3 2.3 0 0 1 2.3 2.3v7.9a2.3 2.3 0 0 1-2.3 2.3H296a2.3 2.3 0 0 1-2.3-2.3v-8a2.3 2.3 0 0 1 2.3-2.3v.1zm13.6 0h4.5a2.3 2.3 0 0 1 2.3 2.3v7.9a2.3 2.3 0 0 1-2.3 2.3h-4.5a2.3 2.3 0 0 1-2.3-2.3v-8a2.3 2.3 0 0 1 2.3-2.3v.1zm13.6 0h4.5a2.3 2.3 0 0 1 2.3 2.3v7.9a2.3 2.3 0 0 1-2.3 2.3h-4.5a2.3 2.3 0 0 1-2.3-2.3v-8a2.3 2.3 0 0 1 2.3-2.3v.1zm-27.2 36h4.5a2.3 2.3 0 0 1 2.3 2.3v8a2.3 2.3 0 0 1-2.3 2.2H296a2.3 2.3 0 0 1-2.3-2.3v-8a2.3 2.3 0 0 1 2.3-2.2zm13.6 0h4.5a2.3 2.3 0 0 1 2.3 2.3v8a2.3 2.3 0 0 1-2.3 2.2h-4.5a2.3 2.3 0 0 1-2.3-2.3v-8a2.3 2.3 0 0 1 2.3-2.2zm13.6 0h4.5a2.3 2.3 0 0 1 2.3 2.3v8a2.3 2.3 0 0 1-2.3 2.2h-4.5a2.3 2.3 0 0 1-2.3-2.3v-8a2.3 2.3 0 0 1 2.3-2.2z"/>
      <path fill="#B8E0E6" d="M297.1 192.2h29.5c1.8 0 2.2 1 2.2 2.3 0 1.4-.4 2.3-2.2 2.3H297c-1.8 0-2.2-1-2.2-2.3 0-1.2.4-2.3 2.2-2.3z"/>
      <path fill="#ECF9F6" d="M194.1 131.2a4.5 4.5 0 1 1 0 9 4.5 4.5 0 0 1 0-9zm0 21.5a4.5 4.5 0 1 1 0 9 4.5 4.5 0 0 1 0-9zm0 20.4a4.5 4.5 0 1 1 0 9 4.5 4.5 0 0 1 0-9zm0 19a4.5 4.5 0 1 1 0 9.2 4.5 4.5 0 0 1 0-9zm0 17a4.5 4.5 0 1 1 0 9 4.5 4.5 0 0 1 0-9zm15.9-56.3a4.5 4.5 0 1 1 0 9 4.5 4.5 0 0 1 0-9zm0 20.3a4.5 4.5 0 1 1 0 9 4.5 4.5 0 0 1 0-9zm0 19a4.5 4.5 0 1 1 0 9.2 4.5 4.5 0 0 1 0-9zm0 17a4.5 4.5 0 1 1 0 9 4.5 4.5 0 0 1 0-9zm15.7-78a4.5 4.5 0 1 1 0 9 4.5 4.5 0 0 1 0-9zm0 21.7a4.5 4.5 0 1 1 0 9 4.5 4.5 0 0 1 0-9zm0 20.3a4.5 4.5 0 1 1 0 9 4.5 4.5 0 0 1 0-9zm0 19a4.5 4.5 0 1 1 0 9.2 4.5 4.5 0 0 1 0-9zm0 17a4.5 4.5 0 1 1 0 9 4.5 4.5 0 0 1 0-9zm-15.7-78a4.5 4.5 0 1 1 0 9 4.5 4.5 0 0 1 0-9zm172.3 146.1l-1-46.9c-192.7.9-406.2 11.7-456.2 52h8.4l448.8-5z"/>
      <path fill="#006169" d="M336 230.3a11 11 0 0 1-10.9-10.8c0-4.8 4.4-24.9 11-24.9 6.4 0 10.8 20 10.8 25a10.8 10.8 0 0 1-10.9 10.7z"/>
      <path fill="#FFE447" d="M336.8 209h-1.5v29.8h1.5v-30z"/>
      <path fill="#FFE447" d="M340.8 212.2l-1-1-4.3 4.3 1 1 4.3-4.3zm0 8.7l-1-1-4.3 4.3 1 1 4.3-4.3zm-4.2-1.8l-5.2-5-1 1 5 5 1-1h.2z"/>
      <path fill="#9AD4C6" fill-rule="evenodd" d="M255.8 160.6c0-1 .6-1.6 1.3-1.6h21.6a1.4 1.4 0 0 1 0 2.9h-21.6c-.7 0-1.3-.6-1.3-1.5v.2zm0 33.5c0-.7.6-1.3 1.3-1.3h21.6a1.4 1.4 0 1 1 0 2.7h-21.6c-.7 0-1.3-.6-1.3-1.4zm0-22.4c0-.8.6-1.4 1.3-1.4h21.6a1.4 1.4 0 1 1 0 2.8h-21.6c-.7 0-1.3-.6-1.3-1.4zm0 33.6c0-.7.6-1.3 1.3-1.3h21.6a1.4 1.4 0 1 1 0 2.8h-21.6c-.7 0-1.3-.7-1.3-1.5zm0-22.4c0-.7.6-1.4 1.3-1.4h21.6a1.4 1.4 0 1 1 0 2.8h-21.6c-.7 0-1.3-.6-1.3-1.4zm0 33.7c0-.8.6-1.4 1.3-1.4h21.6a1.4 1.4 0 0 1 1.3.2 1.5 1.5 0 0 1 .5 1.2 1.4 1.4 0 0 1-1.8 1.4h-21.6c-.7 0-1.3-.6-1.3-1.4z" clip-rule="evenodd"/>
      <path fill="#465BC9" fill-rule="evenodd" d="M218.2 150.8h-14.8v14.9h14.8v-14.9zm-16.7-2v18.6h18.6V149h-18.6z" clip-rule="evenodd"/>
      <path fill="#BFC9FF" fill-rule="evenodd" d="M217.2 149.7h-15v14.8h15v-14.8zm-16.8-2v18.6h18.5v-18.5h-18.5z" clip-rule="evenodd"/>
      <path fill="#465BC9" fill-rule="evenodd" d="M239.5 87l4-14.7A5.2 5.2 0 0 1 246 69l23.7-13.7A5.2 5.2 0 0 1 277 57l10.3 17.6a5.1 5.1 0 0 1-2 7.2l-23.6 13.6a5.2 5.2 0 0 1-4.7.4L242.5 92a4.1 4.1 0 0 1-3-3.4V87zm3-2.4a4.3 4.3 0 0 0 7 4.5 4.3 4.3 0 0 0 .6-6.2 4.4 4.4 0 0 0-7.5 1.7z" clip-rule="evenodd"/>
      <path fill="#BFC9FF" fill-rule="evenodd" d="M239 86l4-14.6a5.1 5.1 0 0 1 2.5-3.5L269 54.2a5.3 5.3 0 0 1 7.3 2l10.2 17.5a5.1 5.1 0 0 1-1.8 7.2L261 94.6a5.3 5.3 0 0 1-4.6.3L241.9 91a4.1 4.1 0 0 1-3-3.3l.1-1.7zm3-2.3a4.3 4.3 0 0 0 7 4.4c.5-.4 1-1 1.2-1.5a4.3 4.3 0 0 0-.6-4.7 4.4 4.4 0 0 0-7.5 1.8z" clip-rule="evenodd"/>
      <path fill="#465BC9" d="M263.3 79.7c.5-.5.8-1 1-1.4 0-.5 0-1-.3-1.5l-.5-.4-.5-.3h-1.4l1.7 3.6zm-5.6-8.3l-.6.5-.3.8v1l.5.6.6.2h1.4l-1.6-3zm3 2.8l1.3-.3h1.4c.5 0 1 .2 1.3.4l1 1 .6 1.7a4 4 0 0 1-1 3c-.2.6-.7 1-1.2 1.4l.5 1.2v.5c0 .2 0 .3-.2.4l-.7.4-.8-1.9c-.7.3-1.4.5-2 .5h-2.1V81l.2-.3.2-.2h1.8c.3 0 .6 0 1-.3l-1.8-3.8-1.3.3h-1.4a3.2 3.2 0 0 1-2.3-1.8 3.6 3.6 0 0 1-.4-2.8c0-.5.4-1 .8-1.4.3-.5.8-.9 1.3-1.2l-.5-1v-.7l.3-.3.7-.4.8 1.7c.6-.3 1.2-.4 1.8-.5.5 0 1 0 1.5.2V70l-.4.3h-1.3l-.7.3 1.6 3.5zm12-.1c.5-.3 1-.7 1-1.2 0-.6 0-1-.3-1.5l-.4-.5-.6-.2H271l1.6 3.5.2-.1zm-5.5-8.2l-.6.7-.4.6a1.5 1.5 0 0 0 .2 1.1l.4.6.5.2h1.4l-1.5-3.1zm3 2.8l1.3-.2h1.4l1.2.4c.4.2.7.6 1 1 .3.6.5 1 .5 1.6a4 4 0 0 1-.7 3c-.3.6-.8 1-1.4 1.5l.6 1.2v.4c0 .2 0 .3-.2.4l-.8.4-.9-1.8-2 .5-2-.1v-1.6l.4-.3h1.9l1-.3-1.8-3.7-1.5.2H267a3.2 3.2 0 0 1-2.3-1.6 3.6 3.6 0 0 1-.4-3l.7-1.3c.4-.5 1-1 1.5-1.3l-.5-1v-.4c0-.2 0-.3.2-.4l.8-.4.7 1.6a4 4 0 0 1 2-.4c.4 0 1 0 1.3.2v1.4l-.3.2h-.3l-1.2.2h-.7l1.7 3.6z"/>
      <path fill="#00575E" fill-rule="evenodd" d="M241 83.8c2.3.2 4 1.3 5 3.5l-1 .3a4.7 4.7 0 0 0-4-3c-2.1-.1-4.8.6-7.7 2.5a56 56 0 0 0-19.1 23.8 99.2 99.2 0 0 0-8.4 32c-.5 5-.3 9.2.7 12 .4 1.2 1 2 1.6 2.5.7.4 1.6.4 2.8 0l.4.7c-1.3.6-2.6.7-3.6 0-1-.5-1.6-1.6-2.2-3-1-3-1-7.2-.7-12.4.8-10 4-23 8.5-32.2a56.5 56.5 0 0 1 19.5-24.3c2.4-1.6 5.3-2.5 8.3-2.4h-.2zm5.8 10.5c-1 6.7-3.4 13.7-8 23.7l-.8-.3a87.1 87.1 0 0 0 7.9-23.6l1 .2z" clip-rule="evenodd"/>
    </g>
  </g>
  <defs>
    <clipPath id="clip0_9772_82504">
      <path fill="#fff" d="M-36 0h401.4v247H-36z"/>
    </clipPath>
  </defs>
</svg>
